# Blender v2.90 (sub 2) OBJ File: ''
# www.blender.org
mtllib snake_head.mtl
o Cube_Cube.001
v -0.500000 -0.022286 0.500000
v -0.500000 0.477714 0.500000
v -0.500000 -0.022286 -0.500000
v -0.500000 0.477714 -0.500000
v 0.500000 -0.022286 0.500000
v 0.500000 0.477714 0.500000
v 0.500000 -0.022286 -0.500000
v 0.500000 0.477714 -0.500000
vt 0.658869 0.670262
vt 0.658817 0.329948
vt 0.995444 0.329895
vt 0.995497 0.670208
vt 0.661603 0.668628
vt 0.657945 0.330177
vt 1.000082 0.326509
vt 1.003740 0.664960
vt 0.663622 0.338079
vt 0.650633 0.674456
vt 0.308731 0.661254
vt 0.321720 0.324877
vt 0.995684 0.331821
vt 0.997097 0.672131
vt 0.660473 0.673552
vt 0.659059 0.333242
vt 0.125000 0.500000
vt 0.375000 0.500000
vt 0.375000 0.750000
vt 0.125000 0.750000
vt -0.001666 0.326745
vt 0.312844 0.328588
vt 0.312844 0.672588
vt 0.003863 0.668902
vn -1.0000 0.0000 0.0000
vn 0.0000 0.0000 -1.0000
vn 1.0000 0.0000 0.0000
vn 0.0000 0.0000 1.0000
vn 0.0000 -1.0000 0.0000
vn 0.0000 1.0000 0.0000
usemtl Material.001
s off
f 1/1/1 2/2/1 4/3/1 3/4/1
f 3/5/2 4/6/2 8/7/2 7/8/2
f 7/9/3 8/10/3 6/11/3 5/12/3
f 5/13/4 6/14/4 2/15/4 1/16/4
f 3/17/5 7/18/5 5/19/5 1/20/5
f 8/21/6 4/22/6 2/23/6 6/24/6
